<svg id="svg" xmlns="http://www.w3.org/2000/svg" xmlns:xlink="http://www.w3.org/1999/xlink" width="400" height="124.00000000000001" viewBox="0, 0, 400,124.00000000000001"><g id="svgg"><path id="path0" d="M56.457 0.127 C 29.585 2.248,7.176 21.796,1.254 48.281 C 0.648 50.993,0.001 55.306,0.000 56.637 L 0.000 57.103 16.468 63.971 L 32.937 70.840 33.576 70.431 C 36.011 68.873,39.053 67.944,42.218 67.791 L 43.807 67.714 51.085 57.072 L 58.363 46.430 58.439 44.958 C 59.553 23.224,87.043 14.676,99.970 32.044 C 111.306 47.274,100.418 69.371,81.578 69.371 L 80.895 69.371 70.443 76.886 L 59.991 84.400 60.045 84.771 C 60.522 88.009,58.474 93.671,55.686 96.825 C 46.531 107.183,29.581 103.188,26.007 89.831 C 25.849 89.242,25.680 88.721,25.631 88.672 C 25.497 88.539,2.158 78.833,2.103 78.887 C 1.958 79.032,3.480 83.513,4.533 86.040 C 15.624 112.676,43.329 127.978,71.712 123.144 C 101.098 118.139,122.739 92.207,122.739 62.000 C 122.739 25.850,92.164 -2.692,56.457 0.127 M79.371 30.519 C 65.547 32.665,61.195 50.408,72.457 58.706 C 81.216 65.160,93.953 60.439,96.562 49.771 C 99.166 39.123,90.009 28.867,79.371 30.519 M83.748 34.581 C 92.279 36.334,95.935 46.543,90.464 53.335 C 85.198 59.873,74.971 58.706,71.250 51.143 C 67.034 42.575,74.500 32.681,83.748 34.581 M168.914 38.689 C 160.400 39.766,155.382 45.088,155.810 52.589 C 156.175 59.003,159.431 62.062,169.532 65.481 C 176.875 67.967,178.250 68.891,178.374 71.429 C 178.644 76.923,168.995 78.300,159.720 74.091 C 158.962 73.747,158.264 73.442,158.168 73.412 C 158.007 73.362,154.970 81.183,155.101 81.310 C 155.987 82.166,161.161 84.119,164.203 84.745 C 178.245 87.636,188.483 81.879,188.493 71.086 C 188.499 64.385,185.508 61.453,174.914 57.775 C 167.023 55.036,165.771 54.159,165.771 51.371 C 165.771 45.889,175.165 44.988,182.627 49.755 C 182.972 49.975,183.266 50.143,183.281 50.128 C 183.600 49.810,187.270 42.999,187.181 42.892 C 186.337 41.875,181.664 39.840,178.743 39.218 C 175.722 38.574,171.584 38.351,168.914 38.689 M392.031 38.919 C 389.133 39.700,387.443 42.143,387.571 45.371 C 387.898 53.623,399.989 53.341,399.999 45.081 C 400.004 40.697,396.239 37.785,392.031 38.919 M195.314 43.429 L 195.314 47.543 202.171 47.543 L 209.029 47.543 209.029 66.114 L 209.029 84.686 213.771 84.686 L 218.514 84.686 218.514 66.114 L 218.514 47.543 225.314 47.543 L 232.114 47.543 232.114 43.429 L 232.114 39.314 213.714 39.314 L 195.314 39.314 195.314 43.429 M242.400 62.000 L 242.400 84.686 257.600 84.686 L 272.800 84.686 272.800 80.514 L 272.800 76.343 262.400 76.343 L 252.000 76.343 252.000 71.086 L 252.000 65.829 260.971 65.829 L 269.943 65.829 269.943 61.714 L 269.943 57.600 260.971 57.600 L 252.000 57.600 252.000 52.571 L 252.000 47.543 262.400 47.543 L 272.800 47.543 272.800 43.429 L 272.800 39.314 257.600 39.314 L 242.400 39.314 242.400 62.000 M297.590 39.626 C 296.895 41.455,280.980 84.332,280.941 84.483 C 280.890 84.675,281.152 84.686,285.859 84.686 L 290.830 84.686 291.589 82.486 C 292.006 81.276,292.672 79.309,293.069 78.114 L 293.791 75.943 302.526 75.914 L 311.261 75.884 312.217 78.656 C 312.743 80.181,313.429 82.161,313.742 83.057 L 314.311 84.686 319.454 84.686 C 324.297 84.686,324.595 84.674,324.545 84.486 C 324.499 84.314,307.936 40.937,307.460 39.743 L 307.289 39.314 302.499 39.314 L 297.709 39.314 297.590 39.626 M334.057 62.000 L 334.057 84.686 338.628 84.686 L 343.199 84.686 343.228 71.108 L 343.257 57.530 349.210 70.451 L 355.162 83.371 357.870 83.371 L 360.578 83.371 366.661 70.268 L 372.743 57.164 372.772 70.925 L 372.801 84.686 377.315 84.686 L 381.829 84.686 381.829 61.999 L 381.829 39.312 377.244 39.342 L 372.660 39.371 365.451 55.573 C 361.487 64.483,358.204 71.735,358.158 71.687 C 358.111 71.639,354.720 64.336,350.623 55.457 L 343.173 39.314 338.615 39.314 L 334.057 39.314 334.057 62.000 M395.289 40.076 C 397.582 40.650,398.977 42.755,398.828 45.414 C 398.454 52.088,388.698 51.768,388.687 45.081 C 388.681 41.428,391.662 39.168,395.289 40.076 M391.657 44.971 L 391.657 48.114 392.229 48.114 L 392.800 48.114 392.800 46.914 L 392.800 45.714 393.372 45.714 L 393.944 45.714 394.541 46.914 L 395.138 48.114 395.805 48.114 L 396.473 48.114 395.755 46.756 L 395.037 45.398 395.396 45.096 C 396.379 44.268,396.273 42.604,395.202 42.058 C 394.817 41.862,394.529 41.829,393.205 41.829 L 391.657 41.829 391.657 44.971 M394.436 42.989 C 395.409 43.500,394.829 44.583,393.539 44.665 L 392.800 44.712 392.800 43.785 L 392.800 42.857 393.493 42.857 C 393.875 42.857,394.299 42.916,394.436 42.989 M305.530 59.274 C 307.203 64.124,308.571 68.122,308.571 68.160 C 308.571 68.198,305.846 68.229,302.514 68.229 C 299.183 68.229,296.457 68.194,296.457 68.151 C 296.457 68.028,302.431 50.393,302.462 50.427 C 302.477 50.443,303.857 54.425,305.530 59.274 M40.743 72.165 C 39.751 72.319,38.057 72.788,38.057 72.908 C 38.057 72.948,39.896 73.746,42.143 74.679 C 47.095 76.737,47.501 76.959,48.914 78.388 C 54.908 84.447,50.753 94.657,42.286 94.677 C 40.159 94.682,40.131 94.674,35.065 92.563 C 32.814 91.625,30.946 90.857,30.913 90.857 C 30.567 90.857,32.449 93.591,33.534 94.666 C 39.883 100.954,50.508 99.114,54.462 91.043 C 59.126 81.521,51.150 70.545,40.743 72.165 " stroke="none" fill="#000000" fill-rule="evenodd"></path></g></svg>